<svg width="32" height="32" xmlns="http://www.w3.org/2000/svg">

 <g>
  <title>background</title>
  <rect fill="none" id="canvas_background" height="402" width="582" y="-1" x="-1"/>
 </g>
 <g>
  <title>Layer 1</title>
  <path transform="rotate(-180 16.00863265991211,16.109344482421875) " fill="#ff0f0f" stroke-width="1" id="path11370" d="m16.062489,0.187469l-0.34375,0.34375c-0.23286,0.23439 -0.47271,0.47619 -0.6875,0.71875c-2.72237,2.94102 -3.95924,6.46858 -4.21875,10c-0.15673,2.13274 0.02038,4.2679 0.4375,6.28125l-1.8125,0.5c-0.14976,-1.76547 -0.74963,-3.5293 -2.09375,-4.96875l-0.375,-0.40625l-0.34375,0.40625c-2.75131,2.94647 -2.42439,7.19514 -1.375,10.1875a0.50005,0.50005 0 0 0 -0.03125,0.03125l-0.9375,2a0.50005,0.50005 0 0 0 0.4375,0.71875l0.625,0c-0.1779,0.3936 -0.06865,0.69545 0.03125,1.03125c0.0999,0.3359 0.24876,0.70405 0.40625,1.03125c0.31499,0.6543 0.6875,1.21875 0.6875,1.21875l0.40625,0.65625l0.4375,-0.65625c0,0 0.35346,-0.5381 0.6875,-1.1875c0.16702,-0.3248 0.33125,-0.68955 0.4375,-1.03125c0.10625,-0.3417 0.20301,-0.6698 0.03125,-1.0625l0.625,0a0.50005,0.50005 0 0 0 0.46875,-0.6875l-0.78125,-2a0.50005,0.50005 0 0 0 -0.0625,-0.125c0.11629,-0.33621 0.2492,-0.66737 0.34375,-1.03125l3.28125,-0.875c0.09433,0.25669 0.1811,0.50143 0.28125,0.75c0.0332,0.08242 0.0604,0.16679 0.09375,0.25l-1.15625,1.96875a0.50005,0.50005 0 0 0 0.4375,0.75l1.875,0c-0.14846,0.18838 -0.29444,0.37619 -0.40625,0.625c-0.23716,0.5277 -0.08145,1.06395 0.09375,1.65625c0.17522,0.5924 0.43065,1.2105 0.71875,1.8125c0.5762,1.2039 1.21875,2.25 1.21875,2.25l0.40625,0.6875l0.4375,-0.65625c0,0 0.67137,-1.02605 1.28125,-2.21875c0.30494,-0.5963 0.59558,-1.24315 0.78125,-1.84375c0.18567,-0.6006 0.32845,-1.1478 0.09375,-1.6875c-0.10793,-0.2481 -0.23569,-0.44068 -0.375,-0.625l1.84375,0a0.50005,0.50005 0 0 0 0.46875,-0.71875l-1.03125,-2c0.03473,-0.09234 0.05631,-0.18792 0.09375,-0.28125c0.14148,-0.35286 0.27639,-0.69331 0.40625,-1.0625l3.09375,0.8125c0.05758,0.2559 0.11779,0.50538 0.1875,0.75c0.0749,0.26286 0.16359,0.50297 0.25,0.75a0.50005,0.50005 0 0 0 -0.03125,0.03125l-0.9375,2a0.50005,0.50005 0 0 0 0.4375,0.71875l0.625,0c-0.1779,0.3936 -0.06865,0.69545 0.03125,1.03125c0.0999,0.3359 0.24876,0.70405 0.40625,1.03125c0.31499,0.6543 0.65625,1.21875 0.65625,1.21875l0.40625,0.65625l0.4375,-0.65625c0,0 0.38471,-0.5381 0.71875,-1.1875c0.16702,-0.3248 0.33125,-0.68955 0.4375,-1.03125c0.10625,-0.3417 0.20301,-0.6698 0.03125,-1.0625l0.625,0a0.50005,0.50005 0 0 0 0.46875,-0.6875l-0.78125,-2a0.50005,0.50005 0 0 0 -0.03125,-0.03125a0.50005,0.50005 0 0 0 0,-0.03125c1.0494,-2.99236 1.37633,-7.24103 -1.375,-10.1875l-0.375,-0.40625l-0.34375,0.40625c-1.24687,1.33531 -1.88512,2.95914 -2.09375,4.59375l-1.8125,-0.5c0.36961,-1.91185 0.52501,-3.93121 0.375,-5.9375c-0.28514,-3.8136 -1.69585,-7.621 -4.90625,-10.6875l-0.34375,-0.34375zm0,1.5c1.28346,1.389 2.2327,2.8936 2.90625,4.5l-5.8125,0c0.67305,-1.6066 1.6234,-3.1111 2.90625,-4.5zm-3.40625,5.5l6.8125,0c0.46045,1.33342 0.73937,2.6977 0.84375,4.09375c0.27065,3.6199 -0.50738,7.32255 -1.71875,10.34375c-0.0514,0.128 -0.10346,0.2494 -0.15625,0.375l-4.75,0c-0.0474,-0.1129 -0.0787,-0.22885 -0.125,-0.34375c-1.21764,-3.0219 -2.01661,-6.71575 -1.75,-10.34375c0.10359,-1.40968 0.37795,-2.77788 0.84375,-4.125zm3.40625,1.65625c-0.99539,0 -1.8125,0.84455 -1.8125,1.84375c0,0.9992 0.81706,1.8125 1.8125,1.8125c0.99544,0 1.8125,-0.8133 1.8125,-1.8125c0,-0.9992 -0.8171,-1.84375 -1.8125,-1.84375zm0,1c0.44408,0 0.8125,0.37435 0.8125,0.84375c0,0.4694 -0.36846,0.8125 -0.8125,0.8125c-0.44402,0 -0.8125,-0.3431 -0.8125,-0.8125c0,-0.4694 0.36843,-0.84375 0.8125,-0.84375zm-9.0625,4.5c1.90902,2.5743 1.64354,6.08595 0.71875,8.65625l-1.5,0c-0.92614,-2.5747 -1.1387,-6.08125 0.78125,-8.65625zm18.1875,0c1.91715,2.575 1.67597,6.08265 0.75,8.65625l-1.5,0c-0.92451,-2.5702 -1.15876,-6.08225 0.75,-8.65625zm-4.46875,3.78125l1.96875,0.53125c-0.01126,0.39102 0.00343,0.80207 0.03125,1.1875c0.0199,0.27573 0.05641,0.54251 0.09375,0.8125l-2.59375,-0.6875c0.18575,-0.59835 0.3533,-1.21564 0.5,-1.84375zm-9.25,0.40625c0.15373,0.61781 0.37122,1.22532 0.5625,1.8125l-2.71875,0.71875c0.1115,-0.64371 0.14872,-1.32572 0.15625,-2l2,-0.53125zm1.96875,4.46875l5.1875,0l0.53125,1l-6.3125,0l0.59375,-1zm-7.4375,1l1.96875,0l0.375,1l-2.8125,0l0.46875,-1zm18.1875,0l1.96875,0l0.375,1l-1.4375,0l-1.375,0l0.46875,-1zm-8.21875,1l0.03125,0c0.31413,0 0.60738,0.04605 0.84375,0.15625c0.24485,0.1142 0.47969,0.29425 0.71875,0.84375c0.0401,0.092 0.06325,0.52315 -0.09375,1.03125c-0.15709,0.5082 -0.42928,1.09015 -0.71875,1.65625c-0.37504,0.7334 -0.57364,0.9923 -0.8125,1.375c-0.22758,-0.3947 -0.39822,-0.64 -0.75,-1.375c-0.27477,-0.5741 -0.53781,-1.1814 -0.6875,-1.6875c-0.14969,-0.5061 -0.11596,-0.91935 -0.09375,-0.96875c0.22046,-0.4905 0.45754,-0.71375 0.71875,-0.84375c0.25229,-0.1256 0.55022,-0.1828 0.84375,-0.1875zm-9.0625,1c0.17166,0 0.2966,0.0265 0.375,0.0625c0.0784,0.036 0.17007,0.09005 0.28125,0.34375c-0.0245,-0.056 -0.01645,0.1262 -0.09375,0.375c-0.0774,0.2489 -0.19233,0.54935 -0.34375,0.84375c-0.10095,0.1963 -0.12311,0.2111 -0.21875,0.375c-0.0918,-0.1691 -0.12158,-0.1731 -0.21875,-0.375c-0.14405,-0.2992 -0.26961,-0.6258 -0.34375,-0.875c-0.0741,-0.2492 -0.0235,-0.42995 -0.0625,-0.34375c0.0997,-0.2205 0.18803,-0.29765 0.28125,-0.34375c0.0932,-0.046 0.19592,-0.0615 0.34375,-0.0625zm18.1875,0c0.17166,0 0.26535,0.0265 0.34375,0.0625c0.0784,0.036 0.17007,0.09005 0.28125,0.34375c-0.0245,-0.056 0.0149,0.1262 -0.0625,0.375c-0.0774,0.2489 -0.22358,0.54935 -0.375,0.84375c-0.10214,0.1986 -0.12222,0.2098 -0.21875,0.375c-0.0892,-0.1649 -0.0937,-0.1802 -0.1875,-0.375c-0.14405,-0.2992 -0.26961,-0.6258 -0.34375,-0.875c-0.0741,-0.2492 -0.05485,-0.42995 -0.09375,-0.34375c0.0997,-0.2205 0.18803,-0.29765 0.28125,-0.34375c0.0932,-0.046 0.22717,-0.0615 0.375,-0.0625z"/>
 </g>
</svg>